<?xml version="1.0"?>
<svg xmlns="http://www.w3.org/2000/svg" xmlns:xlink="http://www.w3.org/1999/xlink" xmlns:svgjs="http://svgjs.com/svgjs" version="1.1" x="0" y="0" viewBox="0 0 55 60" style="enable-background:new 0 0 512 512" xml:space="preserve" class=""><g><g xmlns="http://www.w3.org/2000/svg" fill="none" fill-rule="evenodd"><g id="021---Tick-File" fill-rule="nonzero"><g id="Icons" transform="translate(0 1)"><path id="Shape" d="m6 4c0-2.209139 1.790861-4 4-4h40c2.209139 0 4 1.790861 4 4v40l-12 12h-32c-2.209139 0-4-1.790861-4-4z" fill="#7289da" data-original="#ffe0b2" style="" class=""/><path id="Shape" d="m50 0h-3c2.209139 0 4 1.790861 4 4v40l-12 12h3l12-12v-40c0-2.209139-1.790861-4-4-4z" fill="#465dad" data-original="#dfc49c" style="" class=""/><path id="Shape" d="m26.3 30 1.262-1.753c.6262866-.8699417 1.6691076-1.3396811 2.7356426-1.2322719 1.0665349.1074092 1.9947517.775649 2.435 1.753s.325644 2.1153302-.3006426 2.9852719l-18 25c-.5142263.7139791-1.3159684 1.1662157-2.193 1.237-.078.01-.159.01-.239.01-.7955844-.0001699-1.5585218-.3163519-2.121-.879l-8-8c-.77986975-.7532234-1.09263779-1.8686337-.81809147-2.917522s1.0936812-1.8680231 2.1425695-2.1425695c1.04888829-.2745463 2.16429856.0382217 2.91752197.8180915l5.506 5.505 11.796-16.384" fill="#09eaa3" data-original="#a4c400" style="" class=""/><path id="Shape" d="m3.121 44.879 5.506 5.505 1.256-1.744-3.762-3.761c-.9618805-.9583987-2.44854466-1.148902-3.621-.464.22630122.1269969.43506357.2829804.621.464z" fill="#05c78a" data-original="#90ac00" style="" class=""/><path id="Shape" d="m31.753 27.565c-.9623202-.6902837-2.2406755-.7498332-3.263-.152.087.051.179.092.263.152.6458844.464862 1.0806108 1.1672961 1.2085154 1.9527284.1279047.7854322-.0614931 1.5895026-.5265154 2.2352716l-18 25c-.2468918.340381-.5627579.6248989-.927.835.4525307.2659557.9671182.4080536 1.492.412.08 0 .161 0 .242-.01.8770316-.0707843 1.6787737-.5230209 2.193-1.237l18-25c.4650223-.645769.6544201-1.4498394.5265154-2.2352716-.1279046-.7854323-.562631-1.4878664-1.2085154-1.9527284z" fill="#05c78a" data-original="#90ac00" style="" class=""/><path id="Shape" d="m42 56v-8c0-2.209139 1.790861-4 4-4h8" fill="#4c64bb" data-original="#91562d" style="" class=""/></g><g id="Layer_2" fill="#000"><path id="Shape" d="m55 5c-.0033061-2.76005315-2.2399468-4.99669388-5-5h-40c-2.76005315.00330612-4.99669388 2.23994685-5 5v35c0 .5522847.44771525 1 1 1s1-.4477153 1-1v-35c0-1.65685425 1.34314575-3 3-3h40c1.6568542 0 3 1.34314575 3 3v39h-7c-2.7600532.0033061-4.9966939 2.2399468-5 5v7h-19c-.5522847 0-1 .4477153-1 1s.4477153 1 1 1h20c.2651948-.0000566.5195073-.1054506.707-.293l12-12c.1875494-.1874927.2929434-.4418052.293-.707zm-9 41h5.586l-8.586 8.586v-5.586c0-1.6568542 1.3431458-3 3-3z" fill="#000000" data-original="#000000" style="" class=""/><path id="Shape" d="m0 48c-.00298582 1.0614164.41908117 2.079851 1.172 2.828l8 8c.74859191.752258 1.7667379 1.1742054 2.828 1.172.106 0 .213 0 .322-.013 1.1697742-.0936073 2.2391488-.6970505 2.924-1.65l18-25c.8538028-1.158945 1.0190332-2.6872739.4326548-4.0019195-.5863785-1.3146456-1.833919-2.2128287-3.2666771-2.3518867s-2.8297359.5024582-3.6579777 1.6798062l-1.262 1.753c-.2174322.2895549-.2613465.6740307-.1148076 1.0051579.1465388.3311271.4606341.5571674.8211581.5909505.3605239.0337831.711145-.1299696.9166495-.4281084l1.262-1.752c.411009-.5962775 1.1122512-.9237829 1.8332991-.8562168.7210479.0675662 1.3492386.5196467 1.6423162 1.181901.2930776.6622544.2052491 1.4312059-.2296153 2.0103158l-18 25c-.3414713.4765374-.8756069.7783606-1.46.825-.5848717.0456442-1.1606156-.1657418-1.577-.579l-8-8c-.78076388-.7809997-.78076388-2.0470003 0-2.828.791167-.755814 2.036833-.755814 2.828 0l5.506 5.505c.2064025.2091466.4952604.3154522.788.29.2919277-.0237991.5587455-.1743867.73-.412l11.8-16.385c.2174322-.2895549.2613465-.6740307.1148076-1.0051579-.1465388-.3311271-.4606341-.5571674-.8211581-.5909505-.3605239-.0337831-.711145.1299696-.9166495.4281084l-11.115 15.43-4.671-4.674c-1.58369059-1.5092067-4.07330941-1.5092067-5.657 0-.75291883.748149-1.17498582 1.7665836-1.172 2.828z" fill="#000000" data-original="#000000" style="" class=""/><path id="Shape" d="m14 6h-2c-.5522847 0-1 .44771525-1 1s.4477153 1 1 1h2c.5522847 0 1-.44771525 1-1s-.4477153-1-1-1z" fill="#000000" data-original="#000000" style="" class=""/><path id="Shape" d="m48 6h-30c-.5522847 0-1 .44771525-1 1s.4477153 1 1 1h30c.5522847 0 1-.44771525 1-1s-.4477153-1-1-1z" fill="#000000" data-original="#000000" style="" class=""/><path id="Shape" d="m14 12h-2c-.5522847 0-1 .4477153-1 1s.4477153 1 1 1h2c.5522847 0 1-.4477153 1-1s-.4477153-1-1-1z" fill="#000000" data-original="#000000" style="" class=""/><path id="Shape" d="m18 14h23c.5522847 0 1-.4477153 1-1s-.4477153-1-1-1h-23c-.5522847 0-1 .4477153-1 1s.4477153 1 1 1z" fill="#000000" data-original="#000000" style="" class=""/><path id="Shape" d="m14 18h-2c-.5522847 0-1 .4477153-1 1s.4477153 1 1 1h2c.5522847 0 1-.4477153 1-1s-.4477153-1-1-1z" fill="#000000" data-original="#000000" style="" class=""/><path id="Shape" d="m18 20h16c.5522847 0 1-.4477153 1-1s-.4477153-1-1-1h-16c-.5522847 0-1 .4477153-1 1s.4477153 1 1 1z" fill="#000000" data-original="#000000" style="" class=""/><path id="Shape" d="m51 21c0-.5522847-.4477153-1-1-1s-1 .4477153-1 1v14c0 .5522847.4477153 1 1 1s1-.4477153 1-1z" fill="#000000" data-original="#000000" style="" class=""/><path id="Shape" d="m50 38c-.5522847 0-1 .4477153-1 1v2c0 .5522847.4477153 1 1 1s1-.4477153 1-1v-2c0-.5522847-.4477153-1-1-1z" fill="#000000" data-original="#000000" style="" class=""/></g></g></g></g></svg>
