<?xml version="1.0"?>
<svg xmlns="http://www.w3.org/2000/svg" xmlns:xlink="http://www.w3.org/1999/xlink" xmlns:svgjs="http://svgjs.com/svgjs" version="1.1" x="0" y="0" viewBox="0 0 512 512" style="enable-background:new 0 0 512 512" xml:space="preserve" class=""><g><g xmlns="http://www.w3.org/2000/svg"><path d="m454.03 490.259c-.38 5.76-5.01 10.31-10.78 10.66-5.15.31-10.83.59-16.94.85-50.84 2.18-130.72 2.84-170.32 2.72-44.35.13-139.23-.71-187.26-3.57-5.76-.35-10.39-4.9-10.77-10.66-13.93-208.35-2.83-420.331.05-468.431.35-5.8 4.97-10.4 10.77-10.75 48.01-2.86 142.88-3.7 187.21-3.57 25.25-.07 66.88.17 106.91.92l.07.07 63.01 63.48v.01l31.88 32.12c3.39 91.891 5.95 239.911-3.83 386.151z" fill="#7289da" data-original="#e1f9ff" style="" class=""/><path d="m454.03 490.259c-.38 5.76-5.01 10.31-10.78 10.66-5.15.31-10.83.59-16.94.85 6.59-323.521-.25-428.531-.33-429.781l31.88 32.12c3.39 91.891 5.95 239.911-3.83 386.151z" fill="#556fc9" data-original="#a6dff5" style="" class=""/><path d="m457.86 104.108c-.43.05-12.72 1.41-30.46 2.22-18.1.84-41.88 1.09-64.51-1.2-3.61-47.68 0-96.36 0-96.36l.08-.27 63.01 63.48v.01z" fill="#556fc9" data-original="#9bd8da" style="" class=""/><path d="m457.86 104.108c-.43.05-12.72 1.41-30.46 2.22-.72-23.64-1.39-33.95-1.42-34.34z" fill="#556fc9" data-original="#3eafa9" style="" class=""/><ellipse cx="191.988" cy="151.029" fill="#09eaa3" rx="73.663" ry="73.663" transform="matrix(.234 -.972 .972 .234 .243 302.365)" data-original="#f77173" style="" class=""/></g><g xmlns="http://www.w3.org/2000/svg"><path d="m465.353 103.832c-.069-1.882-.845-3.67-2.172-5.007l-21.326-21.488c-2.918-2.941-7.666-2.958-10.606-.04s-2.958 7.667-.04 10.607l10.031 10.107c-16.77 1.174-44.504 2.376-71.309.226-1.747-27.918-1.142-55.635-.44-72.519l34.76 35.024c2.918 2.94 7.667 2.958 10.606.04 2.94-2.918 2.958-7.667.04-10.607l-46.677-47.033c-1.374-1.384-3.233-2.179-5.183-2.215-42.054-.787-83.959-.983-107.026-.914-43.334-.132-153.326.764-197.962 4.282-3.708.292-6.642 3.258-6.894 6.969-.058.84-1.415 20.963-2.955 54.441-.19 4.138 3.01 7.647 7.147 7.837.117.005.234.008.351.008 3.983 0 7.302-3.135 7.486-7.155 1.041-22.639 1.997-39.112 2.521-47.608 47.597-3.098 149.097-3.906 190.306-3.773 21.605-.068 59.694.104 98.938.772-.847 15.669-2.318 53.263.463 89.911.274 3.623 3.106 6.528 6.722 6.895 13.509 1.37 27.328 1.856 40.14 1.856 20.549 0 38.489-1.25 48.376-2.107 3.436 97.875 5.248 240.329-4.34 380.871-13.406.873-32.01 1.624-55.451 2.239-4.141.109-7.41 3.554-7.301 7.694.106 4.074 3.442 7.303 7.493 7.303.066 0 .134-.001.2-.002 27.705-.727 48.782-1.648 62.647-2.738 3.707-.292 6.666-3.289 6.925-6.982 10.413-147.148 8.211-297.052 4.53-396.894z" fill="#000000" data-original="#000000" style="" class=""/><path d="m347.629 496.334c-36.922.575-71.532.715-91.663.653-41.156.126-142.681-.676-190.298-3.775-.981-14.396-1.872-29.266-2.651-44.3-.215-4.137-3.753-7.318-7.879-7.101-4.137.214-7.315 3.742-7.102 7.879.903 17.398 1.953 34.58 3.12 51.07.263 3.702 3.193 6.656 6.893 6.947 44.678 3.516 154.635 4.403 197.917 4.281 2.831.008 5.946.013 9.318.013 20.631 0 50.756-.173 82.577-.668 4.142-.064 7.447-3.474 7.383-7.616-.063-4.142-3.441-7.433-7.615-7.383z" fill="#000000" data-original="#000000" style="" class=""/><path d="m53.765 418.07c.099 0 .198-.002.298-.006 4.139-.162 7.363-3.648 7.201-7.787-4.655-119.069-2.371-232.276.364-306.278.152-4.139-3.079-7.619-7.218-7.772-4.157-.16-7.62 3.079-7.772 7.218-2.745 74.261-5.036 187.877-.362 307.418.158 4.039 3.482 7.207 7.489 7.207z" fill="#000000" data-original="#000000" style="" class=""/><path d="m191.988 69.866c-44.753 0-81.162 36.41-81.162 81.163s36.409 81.163 81.162 81.163c44.754 0 81.163-36.41 81.163-81.163s-36.409-81.163-81.163-81.163zm0 147.325c-36.481 0-66.162-29.681-66.162-66.163s29.681-66.163 66.162-66.163c36.482 0 66.163 29.681 66.163 66.163s-29.68 66.163-66.163 66.163z" fill="#000000" data-original="#000000" style="" class=""/><path d="m397.615 382.606h-63.938c-4.143 0-7.5 3.358-7.5 7.5s3.357 7.5 7.5 7.5h63.938c4.143 0 7.5-3.358 7.5-7.5s-3.357-7.5-7.5-7.5z" fill="#000000" data-original="#000000" style="" class=""/><path d="m114.679 397.607h183.744c4.143 0 7.5-3.358 7.5-7.5s-3.357-7.5-7.5-7.5h-183.744c-4.143 0-7.5 3.358-7.5 7.5s3.357 7.5 7.5 7.5z" fill="#000000" data-original="#000000" style="" class=""/><path d="m114.679 352.399h282.937c4.143 0 7.5-3.358 7.5-7.5s-3.357-7.5-7.5-7.5h-282.937c-4.143 0-7.5 3.358-7.5 7.5s3.357 7.5 7.5 7.5z" fill="#000000" data-original="#000000" style="" class=""/><path d="m107.179 299.899c0 4.142 3.357 7.5 7.5 7.5h282.937c4.143 0 7.5-3.358 7.5-7.5s-3.357-7.5-7.5-7.5h-282.937c-4.143 0-7.5 3.358-7.5 7.5z" fill="#000000" data-original="#000000" style="" class=""/><path d="m237.179 254.899c0 4.142 3.357 7.5 7.5 7.5h152.937c4.143 0 7.5-3.358 7.5-7.5s-3.357-7.5-7.5-7.5h-152.937c-4.143 0-7.5 3.358-7.5 7.5z" fill="#000000" data-original="#000000" style="" class=""/><path d="m287.179 209.899c0 4.142 3.357 7.5 7.5 7.5h102.937c4.143 0 7.5-3.358 7.5-7.5s-3.357-7.5-7.5-7.5h-102.937c-4.143 0-7.5 3.358-7.5 7.5z" fill="#000000" data-original="#000000" style="" class=""/><path d="m397.615 172.399c4.143 0 7.5-3.358 7.5-7.5s-3.357-7.5-7.5-7.5h-92.937c-4.143 0-7.5 3.358-7.5 7.5s3.357 7.5 7.5 7.5z" fill="#000000" data-original="#000000" style="" class=""/><path d="m397.615 427.607h-213.516c-4.143 0-7.5 3.358-7.5 7.5s3.357 7.5 7.5 7.5h213.517c4.143 0 7.5-3.358 7.5-7.5s-3.358-7.5-7.501-7.5z" fill="#000000" data-original="#000000" style="" class=""/><path d="m114.679 442.607h34.816c4.143 0 7.5-3.358 7.5-7.5s-3.357-7.5-7.5-7.5h-34.816c-4.143 0-7.5 3.358-7.5 7.5s3.357 7.5 7.5 7.5z" fill="#000000" data-original="#000000" style="" class=""/><path d="m213.981 143.529h-14.493v-14.493c0-4.142-3.357-7.5-7.5-7.5s-7.5 3.358-7.5 7.5v14.493h-14.493c-4.143 0-7.5 3.358-7.5 7.5s3.357 7.5 7.5 7.5h14.493v14.493c0 4.142 3.357 7.5 7.5 7.5s7.5-3.358 7.5-7.5v-14.493h14.493c4.143 0 7.5-3.358 7.5-7.5s-3.357-7.5-7.5-7.5z" fill="#000000" data-original="#000000" style="" class=""/></g></g></svg>
